<svg width="32" height="32" viewBox="0 0 32 32" fill="none" xmlns="http://www.w3.org/2000/svg">
  <path d="M11.0344 25C11.0341 25.5499 10.867 26.0892 10.5514 26.5589C10.2357 27.0286 9.78369 27.4106 9.24469 27.6632C8.70568 27.9158 8.10042 28.0293 7.49505 27.9912C6.88969 27.9532 6.30751 27.7651 5.81214 27.4475C5.31676 27.1298 4.92726 26.6949 4.68618 26.1903C4.4451 25.6856 4.36173 25.1306 4.44518 24.5859C4.52862 24.0412 4.77568 23.5277 5.15934 23.1017C5.543 22.6756 6.04851 22.3533 6.62062 22.17V5C6.62062 4.73478 6.73688 4.48043 6.94382 4.29289C7.15075 4.10536 7.43142 4 7.72407 4C8.01672 4 8.29739 4.10536 8.50433 4.29289C8.71126 4.48043 8.82752 4.73478 8.82752 5V22.17C9.47321 22.3769 10.0322 22.7602 10.4275 23.267C10.8227 23.7739 11.0348 24.3793 11.0344 25V25Z" fill="url(#paint0_linear_27_4)" />
  <path d="M2.2069 5C2.2069 3.67392 2.78818 2.40215 3.82286 1.46447C4.85755 0.526784 6.26088 0 7.72414 0C9.1874 0 10.5907 0.526784 11.6254 1.46447C12.6601 2.40215 13.2414 3.67392 13.2414 5V20.1C14.3058 21.0846 15.0259 22.332 15.3112 23.6859C15.5965 25.0398 15.4344 26.44 14.8451 27.7107C14.2559 28.9815 13.2658 30.0663 11.999 30.8292C10.7322 31.592 9.24512 31.999 7.72414 31.999C6.20316 31.999 4.71604 31.592 3.44924 30.8292C2.18244 30.0663 1.19236 28.9815 0.603144 27.7107C0.0139285 26.44 -0.148193 25.0398 0.13711 23.6859C0.422412 22.332 1.14244 21.0846 2.2069 20.1V5ZM7.72414 2C6.84618 2 6.00418 2.31607 5.38337 2.87868C4.76256 3.44129 4.4138 4.20435 4.4138 5V20.974L4.04524 21.274C3.2123 21.949 2.62517 22.8374 2.36154 23.8215C2.09791 24.8055 2.17022 25.839 2.5689 26.785C2.96757 27.731 3.67382 28.545 4.59417 29.1193C5.51453 29.6936 6.60562 30.0011 7.72304 30.0011C8.84046 30.0011 9.93154 29.6936 10.8519 29.1193C11.7723 28.545 12.4785 27.731 12.8772 26.785C13.2759 25.839 13.3482 24.8055 13.0845 23.8215C12.8209 22.8374 12.2338 21.949 11.4008 21.274L11.0345 20.972V5C11.0345 4.20435 10.6857 3.44129 10.0649 2.87868C9.4441 2.31607 8.6021 2 7.72414 2ZM18.7586 4C19.0513 4 19.3319 4.10536 19.5389 4.29289C19.7458 4.48043 19.8621 4.73478 19.8621 5V7C19.8621 7.26522 19.7458 7.51957 19.5389 7.70711C19.3319 7.89464 19.0513 8 18.7586 8C18.466 8 18.1853 7.89464 17.9784 7.70711C17.7714 7.51957 17.6552 7.26522 17.6552 7V5C17.6552 4.73478 17.7714 4.48043 17.9784 4.29289C18.1853 4.10536 18.466 4 18.7586 4V4ZM28.1225 7.514C28.3293 7.70153 28.4456 7.95583 28.4456 8.221C28.4456 8.48616 28.3293 8.74047 28.1225 8.928L26.5622 10.344C26.355 10.5318 26.074 10.6373 25.781 10.6373C25.4879 10.6373 25.2069 10.5318 24.9997 10.344C24.7925 10.1562 24.6761 9.90155 24.6761 9.636C24.6761 9.37045 24.7925 9.11577 24.9997 8.928L26.5622 7.514C26.7691 7.32653 27.0498 7.22121 27.3423 7.22121C27.6349 7.22121 27.9156 7.32653 28.1225 7.514ZM17.6552 11C17.6552 10.7348 17.7714 10.4804 17.9784 10.2929C18.1853 10.1054 18.466 10 18.7586 10C20.5145 10 22.1985 10.6321 23.4402 11.7574C24.6818 12.8826 25.3793 14.4087 25.3793 16C25.3793 17.5913 24.6818 19.1174 23.4402 20.2426C22.1985 21.3679 20.5145 22 18.7586 22C18.466 22 18.1853 21.8946 17.9784 21.7071C17.7714 21.5196 17.6552 21.2652 17.6552 21C17.6552 20.7348 17.7714 20.4804 17.9784 20.2929C18.1853 20.1054 18.466 20 18.7586 20C19.9292 20 21.0519 19.5786 21.8796 18.8284C22.7074 18.0783 23.1724 17.0609 23.1724 16C23.1724 14.9391 22.7074 13.9217 21.8796 13.1716C21.0519 12.4214 19.9292 12 18.7586 12C18.466 12 18.1853 11.8946 17.9784 11.7071C17.7714 11.5196 17.6552 11.2652 17.6552 11ZM27.5862 16C27.5862 15.7348 27.7025 15.4804 27.9094 15.2929C28.1163 15.1054 28.397 15 28.6897 15H30.8966C31.1892 15 31.4699 15.1054 31.6768 15.2929C31.8837 15.4804 32 15.7348 32 16C32 16.2652 31.8837 16.5196 31.6768 16.7071C31.4699 16.8946 31.1892 17 30.8966 17H28.6897C28.397 17 28.1163 16.8946 27.9094 16.7071C27.7025 16.5196 27.5862 16.2652 27.5862 16ZM24.9997 21.656C25.1022 21.5629 25.224 21.489 25.3581 21.4386C25.4921 21.3882 25.6358 21.3622 25.781 21.3622C25.9261 21.3622 26.0698 21.3882 26.2039 21.4386C26.3379 21.489 26.4597 21.5629 26.5622 21.656L28.1225 23.072C28.3235 23.2606 28.4347 23.5132 28.4322 23.7754C28.4297 24.0376 28.3136 24.2884 28.109 24.4738C27.9045 24.6592 27.6277 24.7644 27.3384 24.7667C27.0491 24.7689 26.7703 24.6682 26.5622 24.486L24.9997 23.072C24.897 22.9791 24.8154 22.8688 24.7598 22.7473C24.7042 22.6258 24.6755 22.4955 24.6755 22.364C24.6755 22.2325 24.7042 22.1022 24.7598 21.9807C24.8154 21.8592 24.897 21.7489 24.9997 21.656ZM18.7586 24C19.0513 24 19.3319 24.1054 19.5389 24.2929C19.7458 24.4804 19.8621 24.7348 19.8621 25V27C19.8621 27.2652 19.7458 27.5196 19.5389 27.7071C19.3319 27.8946 19.0513 28 18.7586 28C18.466 28 18.1853 27.8946 17.9784 27.7071C17.7714 27.5196 17.6552 27.2652 17.6552 27V25C17.6552 24.7348 17.7714 24.4804 17.9784 24.2929C18.1853 24.1054 18.466 24 18.7586 24Z" fill="url(#paint1_linear_27_4)" />
  <defs>
    <linearGradient id="paint0_linear_27_4" x1="7.72407" y1="4" x2="7.72407" y2="27.9984" gradientUnits="userSpaceOnUse">
      <stop stop-color="#0558A5" />
      <stop offset="1" stop-color="#117CDF" />
    </linearGradient>
    <linearGradient id="paint1_linear_27_4" x1="16" y1="0" x2="16" y2="31.999" gradientUnits="userSpaceOnUse">
      <stop stop-color="#0558A5" />
      <stop offset="1" stop-color="#117CDF" />
    </linearGradient>
  </defs>
</svg>